<svg xmlns="http://www.w3.org/2000/svg" xmlns:xlink="http://www.w3.org/1999/xlink"><symbol id="sprite">
  <symbol viewBox="0 0 215 55" id="logotype-full">
    <path d="M78.96 23.32c0-.31-.03-.6-.09-.86-.05-.26-.17-.5-.36-.72a3.24 3.24 0 0 0-.8-.66 9.21 9.21 0 0 0-1.34-.68 31.8 31.8 0 0 1-1.91-.88 9 9 0 0 1-1.68-1.1c-.5-.42-.89-.9-1.18-1.47a4.42 4.42 0 0 1-.43-2 4.44 4.44 0 0 1 1.57-3.6c.51-.44 1.1-.78 1.78-1.01a6.96 6.96 0 0 1 2.28-.36c1.14 0 2.12.24 2.95.71a4.95 4.95 0 0 1 1.94 1.94c.47.82.7 1.77.7 2.83h-3.56c0-.5-.08-.94-.22-1.33-.14-.39-.37-.7-.68-.91-.3-.22-.7-.33-1.2-.33-.45 0-.83.1-1.13.28-.29.18-.51.43-.66.74-.13.31-.2.66-.2 1.05 0 .3.07.56.2.8.15.22.35.43.6.62.25.18.55.35.9.52.34.17.73.34 1.14.5.8.32 1.52.67 2.14 1.05.62.38 1.13.8 1.55 1.27.41.47.73 1 .94 1.58a5.87 5.87 0 0 1-.08 4.03c-.25.6-.62 1.12-1.1 1.56-.5.43-1.09.76-1.78 1a7.8 7.8 0 0 1-4.63.01 5 5 0 0 1-3.25-2.88 6.63 6.63 0 0 1-.47-2.62h3.58c0 .53.05 1 .16 1.38.1.37.27.67.49.9.22.22.49.39.8.5.33.1.7.16 1.11.16.48 0 .85-.1 1.13-.27.28-.18.48-.42.6-.72.13-.3.19-.64.19-1.03Zm9.25-5.8V28h-3.43V14.8h3.23l.2 2.73Zm-.49 3.42-.94.03c-.01-.93.07-1.78.25-2.56.18-.79.45-1.47.8-2.04.37-.58.83-1.03 1.38-1.35a3.83 3.83 0 0 1 3.28-.2c.4.17.76.44 1.06.81.3.37.53.85.7 1.44.16.6.24 1.3.24 2.12V28h-3.42v-8.4c0-.58-.06-1.03-.17-1.34a1.18 1.18 0 0 0-.49-.66c-.21-.13-.47-.2-.78-.2-.33 0-.61.1-.86.27-.24.18-.44.43-.6.76-.14.32-.25.7-.34 1.12-.07.43-.1.9-.1 1.4Zm6.44-.34-1.24.16c-.01-.87.07-1.68.24-2.43.17-.75.43-1.41.79-1.98.36-.57.8-1 1.34-1.33a3.7 3.7 0 0 1 1.9-.47c.53 0 1.02.09 1.46.27.44.18.81.46 1.12.86.32.4.56.91.72 1.55.17.65.26 1.43.26 2.35V28h-3.43v-8.41c0-.6-.06-1.05-.17-1.37-.12-.32-.28-.53-.49-.64a1.58 1.58 0 0 0-.76-.18c-.29 0-.55.09-.77.25-.2.16-.39.39-.53.68a3.7 3.7 0 0 0-.33 1.02c-.08.38-.11.8-.11 1.25Zm14.99 4.36v-6.1c0-.4-.05-.72-.15-.96a.94.94 0 0 0-.41-.5 1.2 1.2 0 0 0-.66-.18c-.3 0-.54.06-.74.18-.19.13-.34.3-.44.53-.08.23-.13.5-.13.82h-3.43a3.99 3.99 0 0 1 1.3-2.96c.43-.39.94-.7 1.53-.91.6-.22 1.26-.33 2-.33.88 0 1.67.15 2.35.45.68.3 1.22.76 1.62 1.4.4.65.6 1.48.6 2.5v5.89c0 .74.04 1.34.11 1.8.08.47.2.87.35 1.2V28h-3.44a5.69 5.69 0 0 1-.35-1.37c-.08-.55-.11-1.1-.11-1.67Zm.41-5.03.02 2.05h-1.26c-.33 0-.61.05-.86.16a1.85 1.85 0 0 0-.96 1.11 2.88 2.88 0 0 0 .02 1.61 1.04 1.04 0 0 0 1.04.67c.38 0 .7-.07.98-.23.27-.15.48-.34.6-.56.15-.22.2-.42.14-.61l.78 1.33a5.96 5.96 0 0 1-1.02 1.84c-.25.28-.57.5-.94.69a3.93 3.93 0 0 1-3.25-.23 3.62 3.62 0 0 1-1.4-1.37 4.9 4.9 0 0 1-.18-3.9c.23-.54.55-1 .98-1.37.43-.39.98-.68 1.64-.88a7.9 7.9 0 0 1 2.32-.3h1.35Zm8.97-2.2V28h-3.41V14.8h3.22l.2 2.93Zm3.12-3.04-.05 3.41a2.35 2.35 0 0 0-2.1.09c-.27.1-.5.28-.67.52-.17.23-.3.51-.4.85-.08.35-.14.73-.15 1.16l-.65-.24c0-.86.07-1.65.2-2.37.14-.72.34-1.35.6-1.88.28-.53.6-.95.97-1.24.38-.3.82-.44 1.3-.44.16 0 .33.01.5.05.2.02.34.05.45.1Zm8.12.1v2.58h-6.74v-2.58h6.74Zm-5.2-3.26h3.41v12.44c0 .37.04.65.11.84.08.2.19.34.33.42.16.07.36.1.61.1.17 0 .33 0 .48-.02.15-.02.26-.04.33-.07v2.67a4.75 4.75 0 0 1-1.9.33c-.69 0-1.28-.13-1.79-.39-.5-.26-.88-.67-1.16-1.24a5.28 5.28 0 0 1-.41-2.27v-12.8ZM142.25 28h-3.14l.03-2.95h3.11a3.7 3.7 0 0 0 2.01-.47c.49-.3.82-.8 1.02-1.46.2-.67.3-1.55.3-2.63v-2.77c0-.82-.05-1.52-.16-2.09a3.42 3.42 0 0 0-.53-1.39 2.23 2.23 0 0 0-1.01-.8 4.22 4.22 0 0 0-1.58-.25h-3.25v-2.96h3.25a7.5 7.5 0 0 1 2.8.5c.83.33 1.55.82 2.16 1.46.6.64 1.06 1.42 1.39 2.36.32.93.49 2 .49 3.2v2.74c0 1.2-.17 2.27-.5 3.2a6.6 6.6 0 0 1-1.38 2.36 5.85 5.85 0 0 1-2.16 1.45c-.85.33-1.8.5-2.85.5Zm-1.06-17.77V28h-3.58V10.23h3.58Zm15.71 18.01c-.9 0-1.7-.13-2.4-.41a4.75 4.75 0 0 1-2.86-3.11 8.02 8.02 0 0 1-.38-2.57v-1.08c0-1.08.12-2.02.37-2.82.24-.82.59-1.5 1.03-2.05.45-.56 1-.97 1.65-1.24.66-.27 1.4-.41 2.24-.41.83 0 1.55.14 2.18.41.63.27 1.16.68 1.57 1.22.42.54.73 1.2.95 2 .2.8.31 1.73.31 2.79v1.56h-8.85v-2.4h5.5v-.3c0-.55-.06-1-.17-1.35-.12-.37-.3-.64-.54-.82a1.62 1.62 0 0 0-.98-.27c-.34 0-.63.07-.86.21-.24.14-.43.35-.57.65-.14.29-.24.67-.3 1.14-.07.47-.1 1.03-.1 1.68v1.08c0 .61.05 1.13.16 1.54.1.4.26.74.46 1 .21.25.47.44.77.55a3.98 3.98 0 0 0 2.67-.16c.5-.22.9-.51 1.25-.89l1.37 2.08a5.34 5.34 0 0 1-2.47 1.68c-.58.2-1.24.3-2 .3Zm10.36-2.88 2.13-10.57h3.56L169.32 28h-2.14l.07-2.64ZM166 14.8l2.16 10.59.03 2.62h-2.15l-3.62-13.2H166Zm12.18 0V28h-3.43V14.8h3.43Zm-3.59-3.42c0-.52.17-.96.5-1.3.34-.35.8-.53 1.37-.53.57 0 1.03.18 1.36.53.34.34.5.78.5 1.3s-.17.96-.5 1.31c-.34.34-.79.51-1.35.51-.58 0-1.04-.17-1.38-.51-.33-.35-.5-.79-.5-1.3Zm11.07 14.03c.32 0 .6-.07.82-.2.24-.13.42-.34.54-.63.12-.3.18-.67.2-1.14h3.2c0 1-.2 1.86-.63 2.58a4.34 4.34 0 0 1-1.69 1.66 5.82 5.82 0 0 1-4.7.15c-.66-.29-1.2-.7-1.63-1.25a5.73 5.73 0 0 1-.97-1.99c-.2-.79-.31-1.7-.31-2.7v-.97c0-1 .1-1.9.31-2.69.22-.79.54-1.45.97-2 .43-.54.97-.96 1.62-1.24a5.81 5.81 0 0 1 2.32-.43c.95 0 1.78.2 2.48.6.7.39 1.24.96 1.63 1.73.4.76.6 1.7.6 2.83h-3.2c-.02-.5-.08-.92-.2-1.26-.1-.34-.26-.6-.5-.78a1.3 1.3 0 0 0-.87-.28c-.38 0-.7.08-.93.25-.23.15-.4.38-.52.68-.12.3-.2.66-.23 1.1-.05.44-.07.93-.07 1.49v.96c0 .6.02 1.11.05 1.55.04.43.12.8.24 1.1.12.3.3.51.52.66.23.15.55.22.95.22Zm12.05 2.84c-.9 0-1.7-.13-2.4-.41a4.76 4.76 0 0 1-2.86-3.11 8 8 0 0 1-.38-2.57v-1.08c0-1.08.12-2.02.37-2.82.24-.82.59-1.5 1.03-2.05.45-.56 1-.97 1.65-1.24.66-.27 1.4-.41 2.24-.41.83 0 1.55.14 2.18.41.64.27 1.16.68 1.58 1.22.41.54.72 1.2.94 2 .2.8.31 1.73.31 2.79v1.56h-8.85v-2.4h5.5v-.3c0-.55-.06-1-.18-1.35-.1-.37-.29-.64-.53-.82a1.62 1.62 0 0 0-.98-.27c-.34 0-.63.07-.87.21-.23.14-.42.35-.56.65-.14.29-.24.67-.3 1.14-.07.47-.1 1.03-.1 1.68v1.08c0 .61.05 1.13.16 1.54.1.4.26.74.46 1 .22.25.47.44.77.55a3.98 3.98 0 0 0 2.67-.16c.5-.22.9-.51 1.25-.89l1.37 2.08a5.32 5.32 0 0 1-2.47 1.68c-.58.2-1.24.3-2 .3Z" fill="#F2F5F7"/>
    <path d="m72.57 45.3 1.72-5.64h1.51l-2.54 7.3-.23.52c-.1.18-.22.35-.37.52-.15.17-.33.3-.56.4-.22.1-.49.16-.8.16a5.79 5.79 0 0 1-.69-.1v-1.08a5.13 5.13 0 0 0 .27.02c.24 0 .43-.03.6-.09a.81.81 0 0 0 .37-.27c.1-.12.19-.29.26-.5l.46-1.23Zm-.98-5.64 1.51 4.75.25 1.48-.98.26-2.3-6.49h1.52Zm8.79 4.63 1.88-4.63h1.23L80.86 46h-.96l-2.63-6.34h1.23l1.88 4.63Zm-2.25-4.63V46h-1.4v-6.34h1.4Zm4.5 6.34v-6.34h1.4V46h-1.4Zm7.32-3.7v1.12h-3.28v-1.11h3.28Zm-2.87-2.64V46h-1.41v-6.34h1.41Zm3.9 0V46h-1.42v-6.34h1.41Zm2.55 2.02h1.86c.55 0 1.02.09 1.4.27a2 2 0 0 1 1.18 1.88c0 .31-.06.6-.17.86-.12.27-.28.5-.5.69-.23.2-.5.35-.82.46-.31.1-.68.16-1.09.16h-2.8v-6.34H94v5.22h1.38c.29 0 .51-.05.68-.15.17-.1.29-.22.36-.38a1.15 1.15 0 0 0 0-1 .9.9 0 0 0-.36-.4 1.3 1.3 0 0 0-.68-.15h-1.86v-1.12Zm6.93-2.02V46h-1.4v-6.34h1.4Zm4.47 6.46c-.47 0-.9-.08-1.27-.23a2.81 2.81 0 0 1-1.57-1.63 3.42 3.42 0 0 1-.2-1.21v-.24c0-.5.06-.94.2-1.35.15-.4.35-.74.61-1.03.26-.29.56-.5.91-.66.36-.15.74-.23 1.15-.23.45 0 .85.08 1.19.23.34.15.62.37.84.65.23.27.4.6.5.97.12.38.17.8.17 1.26v.6h-4.9v-1.01h3.51v-.11c0-.26-.06-.5-.15-.72-.1-.22-.23-.4-.42-.54-.19-.13-.44-.2-.75-.2a1.24 1.24 0 0 0-1.08.58c-.12.19-.21.41-.28.68-.06.26-.1.55-.1.88v.24c0 .27.05.53.12.77.08.23.2.44.34.62.15.17.33.31.54.41a1.96 1.96 0 0 0 2.32-.64l.74.72a2.66 2.66 0 0 1-1.34 1.01 3.2 3.2 0 0 1-1.08.18Zm9.57-6.46V46h-1.42v-6.34h1.42Zm2.08 0v1.11h-5.55v-1.11h5.55Zm3.3 6.46c-.47 0-.9-.08-1.27-.23a2.81 2.81 0 0 1-1.56-1.63 3.42 3.42 0 0 1-.22-1.21v-.24c0-.5.08-.94.22-1.35.14-.4.35-.74.6-1.03.26-.29.57-.5.92-.66.35-.15.73-.23 1.14-.23.45 0 .85.08 1.19.23.34.15.62.37.84.65.23.27.4.6.5.97.12.38.18.8.18 1.26v.6h-4.9v-1.01h3.5v-.11c0-.26-.05-.5-.15-.72-.09-.22-.23-.4-.42-.54-.18-.13-.43-.2-.75-.2a1.24 1.24 0 0 0-1.08.58c-.11.19-.2.41-.27.68-.07.26-.1.55-.1.88v.24c0 .27.04.53.11.77.08.23.2.44.34.62.15.17.33.31.54.41a1.96 1.96 0 0 0 2.32-.64l.75.72a2.66 2.66 0 0 1-1.34 1.01 3.2 3.2 0 0 1-1.09.18Zm4.72-6.46 1.2 2.1 1.23-2.1h1.56l-1.92 3.11 2 3.23h-1.56l-1.29-2.2-1.29 2.2h-1.56l2-3.23-1.92-3.11h1.55Zm9.28 2.65v1.11h-3.28v-1.11h3.28Zm-2.87-2.65V46h-1.4v-6.34h1.4Zm3.9 0V46h-1.42v-6.34h1.41Zm1.23 3.24v-.13c0-.46.07-.89.2-1.28s.32-.73.57-1.02c.26-.3.57-.52.93-.68.37-.16.78-.25 1.24-.25.47 0 .88.09 1.24.25.37.16.68.39.94.68.25.29.44.63.58 1.02.13.4.2.82.2 1.28v.13c0 .46-.07.88-.2 1.27a2.7 2.7 0 0 1-2.74 1.95 3.1 3.1 0 0 1-1.25-.24c-.37-.17-.68-.4-.93-.68-.25-.3-.45-.64-.58-1.03-.13-.39-.2-.81-.2-1.27Zm1.41-.13v.13c0 .29.03.56.1.8.05.26.14.49.27.68.12.19.28.34.48.45.2.1.42.16.7.16a1.35 1.35 0 0 0 1.15-.61c.13-.2.22-.42.28-.67.06-.25.1-.52.1-.81v-.13c0-.29-.04-.55-.1-.8a2.03 2.03 0 0 0-.28-.68 1.35 1.35 0 0 0-1.17-.62c-.26 0-.5.05-.69.17-.2.1-.35.26-.47.45-.13.2-.22.42-.28.68-.06.25-.09.51-.09.8Zm9.83-3.11v1.13h-3.09v-1.13h3.1Zm1.11 0V46h-1.41v-6.34h1.41Zm-4.55 0h1.4l-.17 3.13c-.02.47-.07.88-.14 1.24a4.1 4.1 0 0 1-.27.9c-.11.25-.25.46-.42.61-.16.16-.35.27-.57.35a2.3 2.3 0 0 1-.74.11h-.44v-1.16l.22-.02a.87.87 0 0 0 .37-.1c.1-.08.2-.17.27-.29.08-.12.14-.28.2-.47a12.96 12.96 0 0 0 .19-1.6l.1-2.7Zm5.78 3.24v-.13c0-.46.07-.89.2-1.28.14-.39.33-.73.58-1.02.25-.3.56-.52.92-.68.37-.16.78-.25 1.24-.25.47 0 .88.09 1.25.25.36.16.67.39.93.68.25.29.44.63.58 1.02.13.4.2.82.2 1.28v.13c0 .46-.07.88-.2 1.27a2.7 2.7 0 0 1-2.74 1.95 3.1 3.1 0 0 1-1.25-.24c-.37-.17-.67-.4-.93-.68-.25-.3-.44-.64-.58-1.03-.13-.39-.2-.81-.2-1.27Zm1.41-.13v.13c0 .29.03.56.1.8.05.26.14.49.27.68.12.19.28.34.48.45.2.1.43.16.7.16a1.34 1.34 0 0 0 1.16-.61c.12-.2.21-.42.27-.67.06-.25.1-.52.1-.81v-.13c0-.29-.04-.55-.1-.8a2.03 2.03 0 0 0-.28-.68 1.35 1.35 0 0 0-1.17-.62c-.26 0-.5.05-.69.17-.19.1-.35.26-.47.45-.13.2-.22.42-.28.68-.06.25-.09.51-.09.8Zm9.89-3.11v1.13h-2.77V46h-1.4v-6.34h4.17Zm2.28 4.28 2.49-4.28h1.41V46h-1.41v-4.28l-2.5 4.28h-1.4v-6.34h1.4v4.28Zm6.85 0 2.5-4.28h1.4V46h-1.4v-4.28l-2.5 4.28h-1.4v-6.34h1.4v4.28Z" fill="#fff" fill-opacity=".7"/>
    <path d="M33.92 14.67c1.19 0 2.2.77 2.58 1.83H46a2.75 2.75 0 1 1 0 1.83h-9.5a2.75 2.75 0 1 1-2.58-3.66Zm14.66 3.66a.92.92 0 1 0 0-1.83.92.92 0 0 0 0 1.83Zm-14.66 0a.92.92 0 1 0 0-1.83.92.92 0 0 0 0 1.83Z" fill="#00B2FF"/>
    <path d="M26.58 20.34v-5.67c0-.25.1-.48.27-.65l3.67-3.67c.17-.17.4-.27.65-.27h2.92a2.75 2.75 0 1 1 0 1.84h-2.54l-3.13 3.13v5.29a2.75 2.75 0 1 1-1.84 0Zm10.09-8.42a.92.92 0 1 0 0-1.84.92.92 0 0 0 0 1.84ZM27.5 23.83a.92.92 0 1 0 0-1.83.92.92 0 0 0 0 1.83ZM10.08 23.83c.43 0 .82.1 1.18.28l1.57-1.57v-8.79c0-.24.1-.48.27-.65l9.18-9.17a2.75 2.75 0 1 1 2.47 1.57c-.42 0-.82-.1-1.18-.28l-8.9 8.9v8.8c0 .24-.1.47-.27.64l-1.84 1.85a2.75 2.75 0 1 1-2.47-1.57ZM24.75 3.67a.92.92 0 1 0 0-1.84.92.92 0 0 0 0 1.84ZM10.08 27.5a.92.92 0 1 0 0-1.84.92.92 0 0 0 0 1.84ZM1.83 13V9.17c0-.25.1-.48.27-.65L8.52 2.1c.17-.17.4-.27.65-.27h4.75a2.75 2.75 0 1 1 0 1.84H9.55L3.67 9.55V13a2.75 2.75 0 1 1-1.84 0ZM16.5 3.67a.92.92 0 1 0 0-1.84.92.92 0 0 0 0 1.84ZM2.75 16.5a.92.92 0 1 0 0-1.84.92.92 0 0 0 0 1.84ZM14.67 49.67V36.5a2.75 2.75 0 1 1 3.5-3.5h9.5a2.75 2.75 0 0 1 2.58-1.83c1.2 0 2.2.77 2.58 1.83h5.3l3.4-3.4A2.75 2.75 0 1 1 44 31.16c-.42 0-.82-.1-1.18-.28l-3.67 3.67a.91.91 0 0 1-.65.27h-5.67a2.75 2.75 0 0 1-2.58 1.84c-1.2 0-2.2-.77-2.58-1.84h-9.5a2.75 2.75 0 0 1-1.67 1.67v13.17a2.75 2.75 0 1 1-1.83 0ZM44 29.33a.92.92 0 1 0 0-1.83.92.92 0 0 0 0 1.83Zm-13.75 5.5a.92.92 0 1 0 0-1.83.92.92 0 0 0 0 1.83ZM15.58 53.17a.92.92 0 1 0 0-1.84.92.92 0 0 0 0 1.84Zm0-18.34a.92.92 0 1 0 0-1.83.92.92 0 0 0 0 1.83Z" fill="#00B2FF"/>
    <path d="M19.25 18.5v-2.92c0-.24.1-.47.27-.64l11-11.01A2.75 2.75 0 0 1 33 0c1.2 0 2.21.77 2.6 1.83h3.83c.5 0 .91.41.91.92v2.37l3.4 3.4A2.75 2.75 0 1 1 42.17 11c0-.41.11-.81.28-1.17l-3.67-3.67a.91.91 0 0 1-.27-.65V3.67h-2.92a2.75 2.75 0 0 1-3.76 1.55L21.08 15.96v2.54a2.75 2.75 0 1 1-1.83 0Zm25.67-6.58a.92.92 0 1 0 0-1.84.92.92 0 0 0 0 1.84ZM33 3.67a.92.92 0 1 0 0-1.84.92.92 0 0 0 0 1.84ZM20.17 22a.92.92 0 1 0 0-1.84.92.92 0 0 0 0 1.84Z" fill="#00B2FF"/>
    <path d="M22 25.67c1.2 0 2.2.77 2.58 1.83h10.8l5.22-5.23c.17-.17.4-.27.65-.27h9.7l2.22-2.21v-7.5l-7.08-7.07a2.75 2.75 0 1 1 1.57-2.47c0 .42-.1.82-.27 1.18l7.34 7.34c.17.17.27.4.27.65v8.25c0 .24-.1.47-.27.64l-2.75 2.75a.91.91 0 0 1-.65.27h-9.7l-5.23 5.23a.91.91 0 0 1-.65.27H24.58A2.75 2.75 0 1 1 22 25.67ZM44.92 1.83a.92.92 0 1 0 0 1.84.92.92 0 0 0 0-1.84ZM22 29.33a.92.92 0 1 0 0-1.83.92.92 0 0 0 0 1.83ZM2.75 22c.42 0 .82.1 1.18.28l3.4-3.41v-5.29a2.75 2.75 0 1 1 1.84 0v5.67c0 .24-.1.48-.27.65l-3.68 3.67a2.7 2.7 0 0 1-1.55 3.76v.7l7.06 7.07c.17.17.27.4.27.65v1.08a2.75 2.75 0 0 1 1.83 2.59c0 1.19-.77 2.2-1.83 2.58v2.17a2.75 2.75 0 1 1-1.83 0V42a2.75 2.75 0 0 1-1.84-2.58c0-1.2.77-2.2 1.84-2.59v-.7L2.1 29.06a.91.91 0 0 1-.27-.64v-1.09A2.75 2.75 0 0 1 2.75 22Zm5.5-10.08a.92.92 0 1 0 0-1.84.92.92 0 0 0 0 1.84Zm1.83 35.75a.92.92 0 1 0 0-1.84.92.92 0 0 0 0 1.84Zm0-7.34a.92.92 0 1 0 0-1.83.92.92 0 0 0 0 1.83ZM2.75 25.67a.92.92 0 1 0 0-1.84.92.92 0 0 0 0 1.84Z" fill="#00B2FF"/>
  </symbol>
  <symbol viewBox="0 0 35 35" id="logotype-shortened">
    <path d="M21.58 9.33c.76 0 1.4.5 1.65 1.17h6.04a1.75 1.75 0 1 1 0 1.17h-6.04a1.75 1.75 0 1 1-1.65-2.34Zm9.34 2.34a.58.58 0 1 0 0-1.17.58.58 0 0 0 0 1.17Zm-9.34 0a.58.58 0 1 0 0-1.17.58.58 0 0 0 0 1.17Z" fill="#00B2FF"/>
    <path d="M16.92 12.94v-3.6c0-.16.06-.31.17-.42l2.33-2.33c.11-.11.26-.17.41-.17h1.86a1.75 1.75 0 1 1 0 1.16h-1.61l-2 2v3.36a1.75 1.75 0 1 1-1.16 0Zm6.41-5.36a.58.58 0 1 0 0-1.16.58.58 0 0 0 0 1.16Zm-5.83 7.59a.58.58 0 1 0 0-1.17.58.58 0 0 0 0 1.17ZM6.42 15.17c.27 0 .52.06.75.17l1-1V8.75c0-.16.06-.3.17-.41l5.84-5.84a1.75 1.75 0 1 1 1.57 1c-.27 0-.52-.07-.75-.18L9.33 9v5.6c0 .15-.06.3-.17.4L8 16.18c.11.22.18.48.18.75a1.75 1.75 0 1 1-1.75-1.75Zm9.33-12.84a.58.58 0 1 0 0-1.16.58.58 0 0 0 0 1.16ZM6.42 17.5a.58.58 0 1 0 0-1.17.58.58 0 0 0 0 1.17ZM1.17 8.27V5.83c0-.15.06-.3.17-.4l4.08-4.1c.11-.1.26-.16.41-.16h3.03a1.75 1.75 0 1 1 0 1.16H6.08L2.33 6.07v2.2a1.75 1.75 0 1 1-1.16 0Zm9.33-5.94a.58.58 0 1 0 0-1.16.58.58 0 0 0 0 1.16ZM1.75 10.5a.58.58 0 1 0 0-1.17.58.58 0 0 0 0 1.17ZM9.33 31.6v-8.37A1.75 1.75 0 1 1 11.56 21h6.05c.24-.68.88-1.17 1.64-1.17.76 0 1.4.5 1.64 1.17h3.37l2.17-2.17a1.75 1.75 0 1 1 1.57 1c-.27 0-.52-.06-.75-.17L24.91 22a.58.58 0 0 1-.41.17h-3.6a1.75 1.75 0 0 1-1.65 1.16c-.76 0-1.4-.49-1.64-1.16h-6.05c-.18.49-.57.88-1.06 1.06v8.38a1.75 1.75 0 1 1-1.17 0ZM28 18.68a.58.58 0 1 0 0-1.17.58.58 0 0 0 0 1.17Zm-8.75 3.5a.58.58 0 1 0 0-1.17.58.58 0 0 0 0 1.17ZM9.92 33.83a.58.58 0 1 0 0-1.17.58.58 0 0 0 0 1.17Zm0-11.66a.58.58 0 1 0 0-1.17.58.58 0 0 0 0 1.17Z" fill="#00B2FF"/>
    <path d="M12.25 11.77V9.92c0-.16.06-.3.17-.42l7-7A1.75 1.75 0 0 1 21 0c.77 0 1.41.49 1.65 1.17h2.44c.33 0 .59.26.59.58v1.5l2.16 2.18c.23-.11.48-.18.75-.18A1.75 1.75 0 1 1 26.83 7c0-.27.07-.52.18-.75l-2.34-2.34a.58.58 0 0 1-.17-.41V2.33h-1.86a1.75 1.75 0 0 1-2.39 1l-6.83 6.83v1.61a1.75 1.75 0 1 1-1.17 0Zm16.33-4.19a.58.58 0 1 0 0-1.16.58.58 0 0 0 0 1.16ZM21 2.33a.58.58 0 1 0 0-1.16.58.58 0 0 0 0 1.16ZM12.83 14a.58.58 0 1 0 0-1.17.58.58 0 0 0 0 1.17Z" fill="#00B2FF"/><path d="M14 16.33c.76 0 1.4.5 1.64 1.17h6.87l3.33-3.33c.1-.1.26-.17.41-.17h6.18l1.4-1.4V7.81l-4.5-4.5c-.22.11-.48.18-.75.18a1.75 1.75 0 1 1 1.75-1.75c0 .27-.06.52-.17.75l4.67 4.67c.1.11.17.26.17.41v5.25c0 .16-.06.3-.17.42L33.08 15a.58.58 0 0 1-.41.17h-6.18l-3.33 3.33a.58.58 0 0 1-.41.17h-7.1A1.75 1.75 0 1 1 14 16.33ZM28.58 1.17a.58.58 0 1 0 0 1.16.58.58 0 0 0 0-1.16ZM14 18.67a.58.58 0 1 0 0-1.17.58.58 0 0 0 0 1.17ZM1.75 14c.27 0 .52.07.75.18L4.67 12V8.64a1.75 1.75 0 1 1 1.16 0v3.61c0 .15-.06.3-.17.41L3.32 15a1.72 1.72 0 0 1-.99 2.4v.44l4.5 4.5c.1.1.17.25.17.41v.69c.68.24 1.17.88 1.17 1.64 0 .76-.5 1.4-1.17 1.65v1.38a1.75 1.75 0 1 1-1.17 0v-1.38a1.75 1.75 0 0 1-1.16-1.65c0-.76.49-1.4 1.16-1.64v-.45l-4.5-4.5a.58.58 0 0 1-.16-.4v-.7A1.75 1.75 0 0 1 1.75 14Zm3.5-6.42a.58.58 0 1 0 0-1.16.58.58 0 0 0 0 1.16Zm1.17 22.75a.58.58 0 1 0 0-1.16.58.58 0 0 0 0 1.16Zm0-4.66a.58.58 0 1 0 0-1.17.58.58 0 0 0 0 1.17Zm-4.67-9.34a.58.58 0 1 0 0-1.16.58.58 0 0 0 0 1.16Z" fill="#00B2FF"/>
  </symbol>
  <symbol viewBox="0 0 21 20" id="email-icon">
    <path d="M18.06 0H2.95C1.6 0 .5 1.44.5 3.21V16.8C.5 18.56 1.6 20 2.95 20h15.1c1.35 0 2.45-1.44 2.45-3.21V3.22C20.5 1.45 19.4 0 18.06 0Zm1.33 16.79c0 .96-.6 1.74-1.33 1.74H2.95c-.74 0-1.33-.78-1.33-1.74V3.22c0-.96.6-1.75 1.33-1.75h15.1c.74 0 1.33.79 1.33 1.75v13.57Z" fill="#00B2FF"/>
    <path d="m13.11 9.83 4.9-5.76a.9.9 0 0 0 .04-1.04c-.21-.3-.56-.33-.8-.06l-6.74 7.96-1.32-1.54v-.02a.95.95 0 0 0-.1-.1l-5.35-6.3c-.23-.27-.58-.25-.79.06A.9.9 0 0 0 3 4.07l4.94 5.81-4.92 6.06a.9.9 0 0 0-.03 1.04c.11.15.26.24.41.24a.5.5 0 0 0 .38-.2l5-6.15 1.36 1.6c.11.12.24.18.37.18.14 0 .27-.07.38-.2l1.4-1.63 4.97 6.2c.1.14.24.2.38.2a.5.5 0 0 0 .4-.22.9.9 0 0 0-.01-1.04L13.1 9.83Z" fill="#00B2FF"/>
  </symbol>
  <symbol viewBox="0 0 21 20" id="phone-icon">
    <path d="M16.31 12.39c-.4-.43-.9-.66-1.42-.66-.52 0-1.02.23-1.45.66L12.1 13.7l-.32-.16a5.4 5.4 0 0 1-.42-.23 14.51 14.51 0 0 1-3.48-3.16 8.55 8.55 0 0 1-1.14-1.8c.35-.32.67-.65.98-.96l.36-.36c.88-.89.88-2.04 0-2.92L6.92 2.96l-.4-.4c-.25-.26-.51-.53-.79-.78a2 2 0 0 0-1.41-.62c-.52 0-1.02.21-1.44.62L1.42 3.24C.9 3.77.6 4.43.52 5.2c-.1 1.23.26 2.38.54 3.13.68 1.84 1.7 3.55 3.23 5.38a19.89 19.89 0 0 0 6.63 5.18A10.33 10.33 0 0 0 14.9 20c.98 0 1.8-.35 2.44-1.05l.02-.02c.22-.26.47-.5.74-.76l.55-.55c.42-.43.64-.94.64-1.46s-.23-1.02-.65-1.44l-2.33-2.33Zm1.52 4.44-.52.52c-.27.26-.55.54-.81.84-.43.46-.93.67-1.6.67h-.19a9.18 9.18 0 0 1-3.3-.99c-2.39-1.15-4.49-2.8-6.23-4.88a17.13 17.13 0 0 1-3.05-5.06 6.02 6.02 0 0 1-.47-2.64c.04-.5.23-.9.58-1.25L3.68 2.6c.21-.2.43-.3.65-.3a.9.9 0 0 1 .61.3h.02l.76.76.4.41 1.15 1.15c.45.45.45.86 0 1.31l-.36.36c-.36.37-.7.7-1.06 1.03l-.02.02c-.37.37-.3.72-.22.96l.01.04c.3.73.72 1.41 1.37 2.23a15.5 15.5 0 0 0 3.75 3.41c.18.11.35.2.52.28.16.08.3.15.42.23.02 0 .04.02.05.03.15.07.28.1.42.1a.9.9 0 0 0 .64-.29l1.45-1.44c.14-.15.37-.32.64-.32.26 0 .48.17.6.3l.01.02 2.33 2.32c.44.43.44.88 0 1.32ZM11.3 4.76a5.38 5.38 0 0 1 4.43 4.42c.06.28.3.47.57.47h.1a.57.57 0 0 0 .47-.66 6.5 6.5 0 0 0-5.36-5.36.57.57 0 0 0-.66.47c-.06.3.15.6.46.66Z" fill="#00B2FF"/>
    <path d="M20.5 8.82a10.7 10.7 0 0 0-3.02-5.8c-1.6-1.6-3.6-2.64-5.82-3.01a.57.57 0 1 0-.18 1.12 9.6 9.6 0 0 1 7.89 7.88c.04.28.28.47.56.47h.1c.3-.05.52-.35.46-.66Z" fill="#00B2FF"/>
  </symbol>
  <symbol viewBox="0 0 35 35" id="watch">
    <path d="m3.85 11.66-1.8-1.47a1.8 1.8 0 0 1 0-2.9 2.9 2.9 0 0 1 3.54 0L7.5 8.86c2-1.14 4.28-1.93 6.67-2.3V4.5H12.5c-.46 0-.83-.3-.83-.68V2.05C11.67.92 12.79 0 14.17 0h6.66c1.38 0 2.5.92 2.5 2.05v1.78c0 .38-.37.68-.83.68h-1.67v2.04a19.7 19.7 0 0 1 6.67 2.31L29.4 7.3a2.9 2.9 0 0 1 3.54 0c.97.8.97 2.1 0 2.9l-1.8 1.47A12.84 12.84 0 0 1 35 20.64C35 28.56 27.15 35 17.5 35S0 28.56 0 20.64c0-3.27 1.36-6.44 3.85-8.98Zm.56-3.4a.97.97 0 0 0-1.18 0 .6.6 0 0 0 0 .96l1.72 1.42c.4-.33.8-.64 1.22-.94L4.41 8.26Zm17.26-6.2c0-.39-.38-.7-.84-.7h-6.66c-.46 0-.84.31-.84.7v1.08h8.34V2.05ZM15.83 4.5v1.84c1.1-.08 2.23-.08 3.34 0V4.51h-3.34Zm15.94 3.75a.97.97 0 0 0-1.18 0L28.83 9.7c.42.3.83.6 1.22.94l1.72-1.42a.6.6 0 0 0 0-.96ZM17.5 33.63c8.73 0 15.83-5.82 15.83-12.99 0-3.15-1.4-6.2-3.93-8.57a15.2 15.2 0 0 0-2.32-1.77 17.8 17.8 0 0 0-9.58-2.64 17.8 17.8 0 0 0-9.58 2.64 15.2 15.2 0 0 0-2.32 1.77 11.73 11.73 0 0 0-3.93 8.57c0 7.17 7.1 13 15.83 13Z"/>
    <path d="M17.5 22.7c-1.38 0-2.5-.92-2.5-2.06 0-.89.7-1.65 1.67-1.93v-4.9c0-.38.37-.69.83-.69.46 0 .83.31.83.69v4.9C19.3 19 20 19.75 20 20.64c0 1.14-1.12 2.06-2.5 2.06Zm0-2.74c-.46 0-.83.3-.83.68 0 .38.37.69.83.69.46 0 .83-.3.83-.69 0-.37-.37-.68-.83-.68Z"/>
    <path d="M8.62 13.43a.6.6 0 0 1 .04-.03l.05-.04a13.34 13.34 0 0 1 5.25-2.55c.45-.1.9.1 1.04.46.13.36-.12.74-.56.85-1.46.35-2.82.96-3.98 1.78l.56.46a.6.6 0 0 1 0 .97.93.93 0 0 1-.6.2.93.93 0 0 1-.58-.2l-.56-.46a8.06 8.06 0 0 0-2.58 5.1h.8c.46 0 .83.3.83.67 0 .38-.37.69-.83.69h-.8a8.06 8.06 0 0 0 2.58 5.1l.56-.47a.97.97 0 0 1 1.18 0 .6.6 0 0 1 0 .97l-.56.46a12.07 12.07 0 0 0 6.2 2.12v-.66c0-.38.38-.69.84-.69.46 0 .83.31.83.69v.65c2.3-.14 4.46-.87 6.21-2.11l-.56-.46a.6.6 0 0 1 0-.97.97.97 0 0 1 1.18 0l.56.46a8.06 8.06 0 0 0 2.58-5.1h-.8c-.46 0-.83-.3-.83-.68 0-.37.37-.68.83-.68h.8a8.06 8.06 0 0 0-2.58-5.1l-.56.47a.93.93 0 0 1-.59.2.93.93 0 0 1-.59-.2.6.6 0 0 1 0-.97l.56-.46a11.75 11.75 0 0 0-3.98-1.78c-.44-.1-.69-.49-.56-.85.13-.36.6-.57 1.04-.46a13.34 13.34 0 0 1 5.3 2.59l.04.03A9.35 9.35 0 0 1 30 20.64a9.35 9.35 0 0 1-3.66 7.25l-.05.04a13.92 13.92 0 0 1-8.79 2.97c-3.31 0-6.43-1.06-8.8-2.97l-.04-.04-.04-.03A9.35 9.35 0 0 1 5 20.64a9.35 9.35 0 0 1 3.62-7.2Z"/>
    <path d="M17.5 11.76c-.46 0-.83-.3-.83-.69 0-.37.37-.68.83-.68.46 0 .83.3.83.68 0 .38-.37.69-.83.69Z"/>
  </symbol>
  <symbol viewBox="0 0 35 35" id="hired">
    <path d="M31.26 27.9c.38-.53.6-1.16.6-1.85v-4.1c0-.38-.3-.69-.68-.69h-3.06a2.56 2.56 0 0 0-2.56 2.56v2.23c0 .69.22 1.32.6 1.84a4.4 4.4 0 0 0-1.34.45 5.82 5.82 0 0 0-4.3-2.56h-.01a4.02 4.02 0 0 0 1.03-2.7V17.5c0-.38-.31-.68-.69-.68H16.7a3.24 3.24 0 0 0-3.24 3.23v3.03c0 1.04.4 1.98 1.03 2.7h-.02a5.82 5.82 0 0 0-4.3 2.56 4.4 4.4 0 0 0-1.33-.45c.38-.52.6-1.15.6-1.84v-4.1c0-.38-.3-.69-.68-.69H5.7a2.56 2.56 0 0 0-2.56 2.56v2.23c0 .69.22 1.32.6 1.84A4.46 4.46 0 0 0 0 32.3v2.03c0 .37.3.68.68.68h33.64c.37 0 .68-.3.68-.68v-2.03a4.46 4.46 0 0 0-3.74-4.4ZM4.51 23.81c0-.66.53-1.2 1.19-1.2h2.37v.84c0 .4-.33.74-.74.74H4.51v-.38Zm0 1.75h2.82c.26 0 .51-.05.74-.14v.62a1.78 1.78 0 0 1-3.56 0v-.48Zm2.22 3.63-.44.44-.44-.44h.88Zm2.47 2.36v2.07H1.37V32.3a3.1 3.1 0 0 1 2.59-3.05L5.8 31.1a.68.68 0 0 0 .96 0l1.85-1.85c.33.05.64.16.94.31-.24.63-.36 1.3-.36 2.01Zm8.3-5.8a2.67 2.67 0 0 1-2.67-2.68v-.9h4.09c.45 0 .88-.12 1.25-.32v1.22c0 1.47-1.2 2.67-2.67 2.67Zm1.2 1.36-1.2 1.19-1.2-1.2h2.4Zm-3.87-7.07c0-1.03.84-1.87 1.87-1.87h3.47v1.38c0 .7-.56 1.25-1.25 1.25h-4.09v-.76Zm9.6 13.58H10.57v-1.36h4.45a.68.68 0 1 0 0-1.37h-4.4a4.45 4.45 0 0 1 3.8-3.74l2.6 2.6a.68.68 0 0 0 .96 0l2.6-2.6a4.45 4.45 0 0 1 3.85 4.4v2.07Zm2.5-9.8c0-.67.53-1.2 1.2-1.2h2.36v.83c0 .4-.33.74-.74.74h-2.82v-.38Zm0 1.74h2.82c.26 0 .51-.05.74-.14v.62a1.78 1.78 0 0 1-3.56 0v-.48Zm2.22 3.63-.44.44-.44-.44h.88Zm-3.35 4.43v-2.07c0-.7-.12-1.38-.36-2 .3-.16.61-.27.94-.32l1.85 1.85a.68.68 0 0 0 .96 0l1.85-1.85a3.1 3.1 0 0 1 2.6 3.05v1.34H25.8ZM20.87 4.47a.68.68 0 0 0-.97 0l-3.35 3.35-1.45-1.45a.68.68 0 1 0-.97.97l1.93 1.93a.68.68 0 0 0 .97 0l3.84-3.84a.68.68 0 0 0 0-.96Z"/>
    <path d="M20.3.6a.68.68 0 0 0-.56 1.24 5.51 5.51 0 1 1-4.5.01.68.68 0 1 0-.56-1.24 6.88 6.88 0 0 0 2.82 13.13A6.88 6.88 0 0 0 20.3.59Z"/>
    <path d="M17.52 0h-.02a.68.68 0 0 0 0 1.37h.02a.68.68 0 0 0 0-1.37ZM17.98 31.1a.69.69 0 0 0-.96 0 .69.69 0 0 0 0 .97.69.69 0 0 0 .96 0 .69.69 0 0 0 0-.97Z"/>
  </symbol>
  <symbol viewBox="0 0 35 35" id="detective">
    <path d="M17.5 11.02c-.38 0-.68.36-.68.8 0 .44.3.8.68.8.38 0 .68-.36.68-.8 0-.44-.3-.8-.68-.8Z"/>
    <path d="M32.95 15.81h-2.66C28.89 11.13 26.85 2.92 23.17.6c-1.85-1.16-3.59-.35-4.24 1.3-.28.7-.84 1.06-1.43 1.06-.6 0-1.15-.37-1.43-1.06-.63-1.6-2.33-2.48-4.1-1.47C8.21 2.56 6.11 11.1 4.7 15.8H2.05C.92 15.81 0 16.9 0 18.21c0 1.32.92 2.4 2.05 2.4h30.9c1.13 0 2.05-1.07 2.05-2.4 0-1.32-.92-2.4-2.05-2.4ZM7.1 12.61h7.66c.37 0 .68-.35.68-.8 0-.43-.3-.8-.68-.8H7.59c2.06-6.65 3.99-8.58 4.97-9.14 1.07-.61 1.96-.1 2.27.7.5 1.26 1.54 2 2.67 2s2.17-.74 2.67-2c.32-.82 1.21-1.28 2.35-.56.99.62 2.9 2.62 4.89 9h-7.18c-.37 0-.68.37-.68.8 0 .45.3.8.68.8h7.66l.95 3.2H6.16l.95-3.2Zm25.84 6.4H2.05c-.38 0-.68-.36-.68-.8 0-.44.3-.8.68-.8h30.9c.38 0 .68.36.68.8 0 .44-.3.8-.68.8ZM16.13 23.8H5.2c-.38 0-.69.37-.69.8v3.2c0 3.97 2.76 7.2 6.15 7.2 2.57 0 4.85-1.85 5.75-4.63a2.28 2.28 0 0 1 2.18 0c.9 2.78 3.18 4.63 5.75 4.63 3.39 0 6.15-3.23 6.15-7.2v-3.2c0-.43-.3-.8-.69-.8H18.87c-.38 0-.69.37-.69.8v.8h-1.36v-.8c0-.43-.31-.8-.69-.8Zm-5.47 9.6c-2.63 0-4.78-2.5-4.78-5.6v-2.4h9.57v2.4c0 3.1-2.14 5.6-4.79 5.6Zm8.9-8h9.56v2.4c0 3.1-2.15 5.6-4.78 5.6-2.66 0-4.79-2.5-4.79-5.6v-2.4ZM18.17 27v.8c0 .26.02.52.04.77-.48-.1-.96-.1-1.44 0 .02-.25.04-.5.04-.76V27h1.36Z"/>
    <path d="M10.66 30.2c-1.13 0-2.05-1.07-2.05-2.4 0-.44-.3-.8-.68-.8-.38 0-.68.36-.68.8 0 2.2 1.53 4 3.41 4 .38 0 .69-.36.69-.8 0-.44-.3-.8-.69-.8ZM24.34 31.8c1.88 0 3.41-1.8 3.41-4 0-.44-.3-.8-.68-.8-.38 0-.68.36-.68.8 0 1.33-.92 2.4-2.05 2.4-.38 0-.69.36-.69.8 0 .44.3.8.69.8Z"/>
  </symbol>
  <symbol viewBox="0 0 35 35" id="tag">
    <path d="M11.07 8.58a.69.69 0 0 0-.97 0 .69.69 0 0 0 0 .97.69.69 0 0 0 .97 0 .69.69 0 0 0 0-.97Z"/>
    <path d="M34.8 2.86 33.95 2l.85-.84a.68.68 0 0 0-.97-.97l-.84.84-.83-.83a.68.68 0 0 0-.49-.2H20.1a3.4 3.4 0 0 0-2.42 1l-5.77 5.77a.68.68 0 0 0 .96.97l5.78-5.78c.39-.39.9-.6 1.45-.6H31.4l.63.64-2.53 2.54a2.8 2.8 0 1 0 .96.97L33 2.98l.64.64V14.9c0 .55-.22 1.06-.6 1.45L16.33 33.03a2.04 2.04 0 0 1-2.9 0L1.97 21.56a2.04 2.04 0 0 1 0-2.9l7.37-7.37a.68.68 0 0 0-.97-.97L1 17.69a3.4 3.4 0 0 0 0 4.84L12.47 34a3.41 3.41 0 0 0 4.84 0L34 17.32c.65-.65 1-1.5 1-2.42L35 3.34a.68.68 0 0 0-.2-.48Zm-5.74 5.1a1.42 1.42 0 0 1-2.03 0 1.43 1.43 0 0 1 1.43-2.38l-.8.79a.68.68 0 0 0 .97.96l.8-.78c.13.48.01 1.03-.37 1.41Z"/>
    <path d="M29.2 13.76 21.23 5.8a2.71 2.71 0 0 0-3.82 0L4.8 18.4a2.69 2.69 0 0 0 0 3.83l7.97 7.97a2.69 2.69 0 0 0 3.82 0L29.2 17.6a2.69 2.69 0 0 0 0-3.84Zm-.97 2.87-12.6 12.6a1.33 1.33 0 0 1-1.9 0l-7.96-7.96a1.33 1.33 0 0 1 0-1.9l12.6-12.6a1.34 1.34 0 0 1 1.9 0l7.96 7.96a1.33 1.33 0 0 1 0 1.9Z"/>
    <path d="M22.29 13.68a.68.68 0 0 0-.97-.97l-.39.4a2.63 2.63 0 0 0-3.25.28c-.5.5-.75 1.18-.72 1.9a2.88 2.88 0 0 0 .85 1.9c.55.55.62 1.38.14 1.85-.47.48-1.3.42-1.86-.13-.55-.55-.6-1.39-.13-1.86a.68.68 0 0 0-.97-.97c-.85.85-.94 2.2-.29 3.25l-.47.47a.68.68 0 0 0 .97.97l.47-.47c.46.29.97.43 1.48.43.65 0 1.29-.24 1.77-.72 1-1 .94-2.7-.14-3.79a1.51 1.51 0 0 1-.45-1c-.02-.33.1-.64.31-.86.48-.47 1.31-.41 1.86.14s.61 1.38.14 1.86a.68.68 0 0 0 .97.96c.85-.85.94-2.2.29-3.25l.39-.4ZM15.37 25.01l-3.5-3.51a.68.68 0 0 0-.98.97l3.51 3.5a.68.68 0 0 0 .97 0 .68.68 0 0 0 0-.96ZM9.99 19.63a.69.69 0 0 0-.97 0 .69.69 0 0 0 0 .96.69.69 0 0 0 .97 0 .69.69 0 0 0 0-.96Z"/>
  </symbol>
  <symbol viewBox="0 0 5 10" id="arrow-service">
    <path d="M0.476196 8.80957L4.28572 5.00005L0.476196 1.19052" stroke="white" fill="transparent" stroke-linejoin="round"/>
  </symbol>
  <symbol viewBox="0 0 40 40" id="ok">
    <path d="M20.171 17.643c1.157 0 2.057-.965 2.036-2.014.021-1.05-.857-2.036-2.015-2.036-1.114 0-2.035.9-2.035 2.014 0 1.114.9 2.036 2.014 2.036Z" fill="#F8FDFF"/>
    <path d="M20 5C11.729 5 5 11.729 5 20c0 8.293 6.729 15 15 15 8.293 0 15-6.729 15-15 .021-8.271-6.707-15-15-15Zm.214 5.679c2.7 0 4.929 2.228 4.907 4.95 0 2.742-2.25 4.95-4.992 4.907-2.7-.043-4.865-2.25-4.865-4.929a4.934 4.934 0 0 1 4.95-4.928Zm5.507 11.571c0 .043-.021.064-.021.107a1.401 1.401 0 0 1-.643 1.007c-.236.15-.493.3-.75.429a9.662 9.662 0 0 1-2.036.75c-.085.021-.085.021-.021.086l1.178 1.178 1.5 1.5a1.43 1.43 0 0 1-.385 2.314c-.15.086-.322.108-.493.15h-.279c-.021 0-.043 0-.043-.021-.342-.043-.62-.214-.878-.45l-2.593-2.593c-.064-.064-.064-.064-.129 0l-2.614 2.614c-.15.15-.3.258-.493.343-.128.065-.278.086-.407.107h-.278c-.043 0-.065-.021-.107-.021-.579-.107-.965-.429-1.136-.986-.172-.557-.043-1.05.364-1.457l1.072-1.071 1.585-1.586c.064-.064.064-.064-.021-.086-.022 0-.064-.021-.086-.021a9.26 9.26 0 0 1-2.678-1.136c-.493-.321-.729-.793-.665-1.371.107-1.072 1.307-1.65 2.207-1.072.172.107.322.193.515.279a6.1 6.1 0 0 0 3.128.643 6.069 6.069 0 0 0 1.607-.3c.515-.172.965-.407 1.436-.665a1.445 1.445 0 0 1 2.079.75c.043.129.064.236.085.365v.214Z" fill="#F8FDFF"/>
  </symbol>
  <symbol viewBox="0 0 40 40" id="vk">
    <path d="M26.617 22.4544C25.3818 21.2726 25.2935 21.2726 26.3523 19.9091C27.6758 18.1819 29.4405 16.0002 27.8523 16.0002H24.9406C24.4112 16.0002 24.323 16.3638 24.1465 16.8184C23.4406 18.5455 22.0289 20.8181 21.4995 20.4545C20.9701 20.0909 21.2348 18.7273 21.2348 16.5457C21.323 16.2729 21.2348 16.0002 21.0583 15.8184C20.8819 15.6366 20.6172 15.4548 20.3525 15.4548C19.9113 15.3639 19.4702 15.273 19.029 15.273C17.3526 15.273 16.2056 16.0002 16.8232 16.0911C17.9702 16.2729 17.882 18.8182 17.6173 19.9091C17.1761 21.8181 15.4115 18.4546 14.6174 16.7275C14.5291 16.2729 14.1762 16.0002 13.735 16.0002H11.441C11.0881 16.0002 10.8234 16.0911 10.8234 16.3638C10.8234 16.8184 13.0292 21.2726 15.0585 23.5452C17.0879 25.7269 19.1172 25.5451 20.529 25.5451C20.7054 25.5451 20.8819 25.4542 20.9701 25.3633C21.0583 25.2724 21.1466 25.0906 21.1466 24.9088C21.1466 23.4543 21.676 22.7271 22.6465 23.727C23.7053 24.8179 23.97 25.5451 25.2935 25.5451H27.6758C28.2934 25.5451 28.4699 25.3633 28.4699 25.0906C28.5581 24.4543 27.4993 23.2725 26.617 22.4544ZM20.3525 5.00091C28.5581 5.18272 35.0873 12.0005 34.9991 20.2727C34.9109 28.5449 28.117 35.09 19.9113 34.9991C11.6175 34.9082 5 28.2722 5 20C5.08823 11.6369 11.9704 4.91001 20.3525 5.00091Z" fill="#F8FDFF"/>
  </symbol>
  <symbol viewBox="0 0 40 40" id="pinterest">
    <path d="M19.9999 5C28.2847 5 35 11.7162 35 20.0001C35 28.2848 28.2847 35 19.9999 35C11.7152 35 5 28.2847 5 20.0001C5 11.7162 11.7153 5 19.9999 5Z" fill="#F8FDFF"/>
    <path d="M20 10C14.4823 10 10 14.4823 10 20C10 25.5177 14.4823 30 20 30C25.5177 30 30 25.5177 30 20C30 14.4823 25.5177 10 20 10ZM20 10.8696C25.0477 10.8696 29.1304 14.9523 29.1304 20C29.1304 25.0477 25.0477 29.1304 20 29.1304C19.0767 29.1304 18.186 28.9922 17.3463 28.7381C17.7203 28.1128 18.2032 27.219 18.395 26.481C18.509 26.0434 18.9776 24.2587 18.9776 24.2587C19.2821 24.84 20.1719 25.332 21.1192 25.332C23.9383 25.332 25.9706 22.7394 25.9706 19.5177C25.9706 16.4289 23.4502 14.1185 20.2072 14.1185C16.1725 14.1185 14.0311 16.8264 14.0311 19.775C14.0311 21.1462 14.7604 22.8531 15.9282 23.3967C16.105 23.4791 16.2 23.4434 16.2407 23.2719C16.2719 23.1418 16.4297 22.5073 16.5005 22.2121C16.5232 22.1179 16.5122 22.0365 16.436 21.9438C16.0495 21.475 15.7396 20.6138 15.7396 19.8106C15.7396 17.7487 17.3006 15.7532 19.9601 15.7532C22.2564 15.7532 23.8646 17.3186 23.8646 19.5567C23.8646 22.0853 22.5879 23.8375 20.9265 23.8375C20.0089 23.8375 19.3219 23.0784 19.5423 22.1476C19.8065 21.0366 20.3167 19.8378 20.3167 19.0353C20.3167 18.3177 19.9316 17.7191 19.1338 17.7191C18.1958 17.7191 17.4423 18.6889 17.4423 19.989C17.4423 20.8162 17.7225 21.3765 17.7225 21.3765C17.7225 21.3765 16.7959 25.2941 16.6262 26.0233C16.4561 26.7519 16.5017 27.7332 16.5718 28.4638C13.2266 27.1098 10.8696 23.8345 10.8696 20C10.8696 14.9523 14.9523 10.8696 20 10.8696Z" fill="#041827"/>
 </symbol>
  <symbol viewBox="0 0 40 40" id="icon-close">
    <path fill-rule="evenodd" clip-rule="evenodd" d="M.18 1.03a.6.6 0 0 1 .85-.85L10 9.15 18.97.18a.6.6 0 0 1 .85.85L10.85 10l8.97 8.97a.6.6 0 1 1-.85.85L10 10.85l-8.97 8.97a.6.6 0 1 1-.85-.85L9.15 10 .18 1.03Z" fill="#fff"/>
  </symbol>
  <symbol viewBox="0 0 15 15" id="icon-plus">
    <path fill-rule="evenodd" clip-rule="evenodd" d="M7.97 7.03V0h-.94v7.03H0v.94h7.03V15h.94V7.97H15v-.94H7.97Z" fill="#F8FDFF"/>
  </symbol>
  <symbol viewBox="0 0 15 15" id="icon-minus">
    <path d="M0 7h15v1H0V7Z" fill="#F8FDFF"/>
  </symbol>
</symbol></svg>